<svg xmlns="http://www.w3.org/2000/svg" width="960" height="520" viewBox="0 0 960 520" role="img" aria-labelledby="title desc">
  <title id="title">Smart Investment optimal allocation</title>
  <desc id="desc">HiGHS invests 3000 dollars in ABC, 1000 in XYZ, 1000 in TTT, and 5000 in LMN, producing a projected value of 14650 dollars.</desc>
  <rect width="960" height="520" rx="24" fill="#f8fafc"/>
  <text x="48" y="58" font-family="Arial, sans-serif" font-size="28" font-weight="700" fill="#0f172a">Smart Investment — HiGHS optimal allocation</text>
  <text x="48" y="88" font-family="Arial, sans-serif" font-size="15" fill="#475569">$10,000 invested · whole shares · $4,650 projected gain</text>

  <g font-family="Arial, sans-serif">
    <text x="52" y="145" font-size="14" font-weight="700" fill="#334155">Stock</text>
    <text x="155" y="145" font-size="14" font-weight="700" fill="#334155">Investment</text>
    <text x="730" y="145" font-size="14" font-weight="700" fill="#334155">Amount</text>
    <text x="835" y="145" font-size="14" font-weight="700" fill="#334155">Shares</text>

    <text x="52" y="193" font-size="17" font-weight="700" fill="#0f172a">ABC</text>
    <rect x="155" y="169" width="330" height="30" rx="8" fill="#2563eb"/>
    <text x="730" y="191" font-size="16" fill="#0f172a">$3,000</text>
    <text x="850" y="191" font-size="16" fill="#0f172a">120</text>

    <text x="52" y="247" font-size="17" font-weight="700" fill="#0f172a">XYZ</text>
    <rect x="155" y="223" width="110" height="30" rx="8" fill="#64748b"/>
    <text x="730" y="245" font-size="16" fill="#0f172a">$1,000</text>
    <text x="850" y="245" font-size="16" fill="#0f172a">20</text>

    <text x="52" y="301" font-size="17" font-weight="700" fill="#0f172a">TTT</text>
    <rect x="155" y="277" width="110" height="30" rx="8" fill="#64748b"/>
    <text x="730" y="299" font-size="16" fill="#0f172a">$1,000</text>
    <text x="850" y="299" font-size="16" fill="#0f172a">10</text>

    <text x="52" y="355" font-size="17" font-weight="700" fill="#0f172a">LMN</text>
    <rect x="155" y="331" width="550" height="30" rx="8" fill="#0f766e"/>
    <text x="730" y="353" font-size="16" fill="#0f172a">$5,000</text>
    <text x="850" y="353" font-size="16" fill="#0f172a">200</text>
  </g>

  <g font-family="Arial, sans-serif">
    <rect x="48" y="405" width="260" height="76" rx="14" fill="#ffffff" stroke="#cbd5e1"/>
    <text x="66" y="432" font-size="13" fill="#64748b">CURRENT PORTFOLIO</text>
    <text x="66" y="462" font-size="25" font-weight="700" fill="#0f172a">$10,000</text>

    <rect x="350" y="405" width="260" height="76" rx="14" fill="#ffffff" stroke="#cbd5e1"/>
    <text x="368" y="432" font-size="13" fill="#64748b">PROJECTED VALUE</text>
    <text x="368" y="462" font-size="25" font-weight="700" fill="#0f172a">$14,650</text>

    <rect x="652" y="405" width="260" height="76" rx="14" fill="#ffffff" stroke="#cbd5e1"/>
    <text x="670" y="432" font-size="13" fill="#64748b">PROJECTED GAIN</text>
    <text x="670" y="462" font-size="25" font-weight="700" fill="#0f172a">+$4,650</text>
  </g>
</svg>